<svg width="233" height="200" viewBox="0 0 233 200" fill="none" xmlns="http://www.w3.org/2000/svg">
<path d="M41.0656 134.201H33.1704L37.118 59.7237L41.0656 134.201ZM44.4868 198.152H76.8569L59.2244 2.35241H17.117L0.800366 198.152H29.486L31.3282 162.887H42.6446L44.4868 198.152ZM118.993 199.994C143.205 199.994 153.469 186.309 153.469 165.255V126.306C153.469 108.937 148.468 100.252 135.31 89.1989L118.467 74.4613C114.256 70.5138 113.203 68.6716 113.203 63.4081V29.9854C113.203 27.0905 114.256 25.7746 116.625 25.7746C118.993 25.7746 120.046 27.0905 120.046 29.9854V71.5665H152.153V28.4064C152.153 12.6161 144.521 0.510201 120.572 0.510201H112.94C88.9915 0.510201 79.5174 12.8792 79.5174 31.0381V65.7767C79.5174 80.5143 84.2545 91.3043 95.5708 100.778L112.677 115.516C117.677 119.99 118.467 122.622 118.467 128.938V167.098C118.467 170.782 117.151 172.624 114.782 172.624C112.414 172.624 111.361 170.782 111.361 167.361V118.411H78.7279V169.729C78.7279 189.994 89.5179 199.994 111.361 199.994H118.993ZM198.407 199.994C222.619 199.994 232.882 186.309 232.882 165.255V126.306C232.882 108.937 227.882 100.252 214.724 89.1989L197.881 74.4613C193.67 70.5138 192.617 68.6716 192.617 63.4081V29.9854C192.617 27.0905 193.67 25.7746 196.039 25.7746C198.407 25.7746 199.46 27.0905 199.46 29.9854V71.5665H231.567V28.4064C231.567 12.6161 223.935 0.510201 199.986 0.510201H192.354C168.406 0.510201 158.931 12.8792 158.931 31.0381V65.7767C158.931 80.5143 163.668 91.3043 174.985 100.778L192.091 115.516C197.091 119.99 197.881 122.622 197.881 128.938V167.098C197.881 170.782 196.565 172.624 194.196 172.624C191.828 172.624 190.775 170.782 190.775 167.361V118.411H158.142V169.729C158.142 189.994 168.932 199.994 190.775 199.994H198.407Z" fill="black"/>
</svg>
