<svg width="269" height="197" viewBox="0 0 269 197" fill="none" xmlns="http://www.w3.org/2000/svg">
<path d="M0.291503 196.325H48.4519C63.1894 196.325 73.7163 187.378 73.7163 166.587V28.6853C73.7163 7.89479 62.3999 0.525991 47.9255 0.525991H0.291503V196.325ZM32.9247 27.3695H36.0828C39.2409 27.3695 40.0304 29.4748 40.0304 33.4224V162.113C40.0304 166.587 39.2409 168.692 36.0828 168.692H32.9247V27.3695ZM115.277 132.375H107.382L111.329 57.8973L115.277 132.375ZM118.698 196.325H151.068L133.436 0.525991H91.3282L75.0116 196.325H103.697L105.539 161.06H116.856L118.698 196.325ZM158.431 196.325H191.327V30.5275H206.328V0.525991H143.43V30.5275H158.431V196.325ZM211.034 0.525991V196.325H268.142V165.798H243.667V109.216H263.668V78.1615H243.667V30.5275H267.353V0.525991H211.034Z" fill="black"/>
</svg>
