<svg width="236" height="201" viewBox="0 0 236 201" fill="none" xmlns="http://www.w3.org/2000/svg">
<path d="M0.354209 198.152H48.5146C63.2522 198.152 73.779 189.204 73.779 168.413V30.5117C73.779 9.7212 62.4626 2.35241 47.9882 2.35241H0.354209V198.152ZM32.9875 29.1959H36.1455C39.3036 29.1959 40.0931 31.3013 40.0931 35.2488V163.94C40.0931 168.413 39.3036 170.519 36.1455 170.519H32.9875V29.1959ZM119.262 200.257C143.211 200.257 154.264 184.993 154.264 167.887V2.35241H120.315V163.94C120.315 167.361 118.999 168.94 116.631 168.94C114.262 168.94 113.209 167.361 113.209 163.94V2.35241H78.9972V167.887C78.9972 185.256 88.4714 200.257 113.999 200.257H119.262ZM235.759 39.1964C235.759 15.7741 225.232 0.510201 200.231 0.510201H194.967C169.966 0.510201 159.439 14.9846 159.439 39.1964V162.097C159.439 186.309 171.808 199.994 194.967 199.994H200.494C222.337 199.994 235.759 186.572 235.759 162.097V39.1964ZM201.547 164.992C201.547 168.413 200.231 170.256 197.599 170.256C195.231 170.256 193.915 168.413 193.915 164.992V35.512C193.915 31.5644 195.231 29.7222 197.599 29.7222C200.231 29.7222 201.547 31.5644 201.547 35.512V164.992Z" fill="black"/>
</svg>
