<svg width="276" height="197" viewBox="0 0 276 197" fill="none" xmlns="http://www.w3.org/2000/svg">
<path d="M33.8811 196.152L33.6179 119.043L43.8816 196.152H78.6202L61.7772 89.0411L77.8307 0.352407H44.6711L33.6179 70.8823L33.8811 0.352407H0.721465V196.152H33.8811ZM114.072 0.352407H80.6495V196.152H114.072V0.352407ZM119.457 0.352407V196.152H147.353L147.09 78.7775L162.617 196.152H193.408V0.352407H165.775L166.038 106.41L153.143 0.352407H119.457ZM231.774 196.152L231.51 119.043L241.774 196.152H276.513L259.67 89.0411L275.723 0.352407H242.564L231.51 70.8823L231.774 0.352407H198.614V196.152H231.774Z" fill="black"/>
</svg>
