<svg width="322" height="185" viewBox="0 0 322 185" fill="none" xmlns="http://www.w3.org/2000/svg">
<path d="M0 114.472V62.9808H8.81428C15.2826 62.9808 20.2478 64.1418 23.7097 66.4637C27.1717 68.7856 28.9027 72.7009 28.9027 78.2097C28.9027 81.3511 28.1738 84.0827 26.7162 86.4046C25.2585 88.7265 23.2087 90.5021 20.5667 91.7313C17.9247 92.9605 14.8727 93.5751 11.4107 93.5751H7.78937V114.472H0ZM10.7275 86.3363C17.8336 86.3363 21.3866 83.6047 21.3866 78.1414C21.3866 72.8147 17.7197 70.1514 10.3858 70.1514H7.78937V86.3363H10.7275Z" fill="#FEFEE4"/>
<path d="M35.8096 114.472V58.4736H43.3257V79.9853V85.4485H43.4623C45.9221 82.5348 49.2019 81.0779 53.3015 81.0779C56.9912 81.0779 59.7699 82.2389 61.6375 84.5608C63.5507 86.8826 64.5073 90.2061 64.5073 94.5312V114.472H56.9912V96.3068C56.9912 93.2565 56.4902 91.0939 55.488 89.8191C54.5314 88.4989 52.9827 87.8387 50.8417 87.8387C48.3819 87.8387 46.5143 88.6582 45.2389 90.2972C43.9634 91.8906 43.3257 94.5995 43.3257 98.4238V114.472H35.8096Z" fill="#FEFEE4"/>
<path d="M77.0679 72.7464C76.1568 72.7464 75.3141 72.5188 74.5397 72.0635C73.8109 71.6082 73.2187 71.0164 72.7632 70.288C72.3532 69.514 72.1483 68.6945 72.1483 67.8295C72.1483 66.9645 72.3532 66.1677 72.7632 65.4393C73.2187 64.7109 73.8109 64.119 74.5397 63.6637C75.3141 63.2085 76.1341 62.9808 76.9995 62.9808C77.9106 62.9808 78.7305 63.2085 79.4593 63.6637C80.2337 64.0735 80.8487 64.6653 81.3042 65.4393C81.7597 66.1677 81.9875 66.9645 81.9875 67.8295C81.9875 68.6945 81.7597 69.514 81.3042 70.288C80.8942 71.0164 80.3021 71.6082 79.5277 72.0635C78.7988 72.5188 77.9789 72.7464 77.0679 72.7464ZM80.8259 114.472H73.3098V81.9657H80.8259V114.472Z" fill="#FEFEE4"/>
<path d="M97.8411 114.472H90.3251V58.4736H97.8411V114.472Z" fill="#FEFEE4"/>
<path d="M122.169 115.428C118.798 115.428 115.815 114.677 113.218 113.175C110.622 111.627 108.595 109.532 107.137 106.892C105.725 104.251 105.019 101.292 105.019 98.0141C105.019 94.9182 105.748 92.0955 107.205 89.546C108.663 86.9509 110.69 84.9022 113.286 83.3998C115.928 81.8519 118.935 81.0779 122.306 81.0779C125.676 81.0779 128.683 81.8291 131.325 83.3315C133.967 84.8339 136.017 86.9054 137.474 89.546C138.932 92.141 139.661 95.0548 139.661 98.2872C139.661 101.474 138.932 104.388 137.474 107.028C136.017 109.624 133.944 111.672 131.257 113.175C128.615 114.677 125.585 115.428 122.169 115.428ZM122.306 108.736C124.219 108.736 125.904 108.303 127.362 107.438C128.865 106.573 130.004 105.367 130.778 103.819C131.598 102.225 132.008 100.381 132.008 98.2872C132.008 96.2385 131.598 94.4402 130.778 92.8922C130.004 91.2988 128.865 90.0695 127.362 89.2045C125.904 88.294 124.219 87.8387 122.306 87.8387C120.438 87.8387 118.753 88.294 117.249 89.2045C115.792 90.0695 114.653 91.276 113.833 92.8239C113.059 94.3719 112.671 96.1474 112.671 98.1506C112.671 100.29 113.059 102.157 113.833 103.75C114.653 105.344 115.769 106.573 117.181 107.438C118.639 108.303 120.347 108.736 122.306 108.736Z" fill="#FEFEE4"/>
<path d="M154.905 115.428C152.035 115.428 149.575 114.814 147.526 113.584C145.521 112.355 144.064 110.83 143.153 109.009L148.824 104.707C150.373 107.302 152.4 108.599 154.905 108.599C156.135 108.599 157.091 108.349 157.775 107.848C158.458 107.302 158.8 106.528 158.8 105.526C158.8 104.843 158.617 104.251 158.253 103.75C157.889 103.25 157.228 102.726 156.272 102.18C155.36 101.633 153.971 100.928 152.104 100.063C149.37 98.8335 147.412 97.445 146.227 95.897C145.089 94.3491 144.519 92.4825 144.519 90.2972C144.519 88.4761 144.975 86.8826 145.886 85.5168C146.797 84.1055 148.049 83.0128 149.644 82.2389C151.238 81.4649 152.992 81.0779 154.905 81.0779C157.228 81.0779 159.278 81.5104 161.054 82.3754C162.831 83.1949 164.22 84.3559 165.222 85.8583L159.688 90.2972C159.141 89.6143 158.412 89.0452 157.501 88.5899C156.636 88.0891 155.748 87.8387 154.837 87.8387C153.88 87.8387 153.128 88.0436 152.582 88.4533C152.035 88.8631 151.762 89.4094 151.762 90.0923C151.762 90.5931 151.944 91.0711 152.309 91.5264C152.673 91.9362 153.333 92.4142 154.29 92.9605C155.247 93.4613 156.681 94.1442 158.595 95.0093C161.373 96.2385 163.309 97.6498 164.403 99.2433C165.496 100.791 166.042 102.703 166.042 104.98C166.042 107.074 165.564 108.918 164.608 110.511C163.651 112.059 162.33 113.266 160.645 114.131C158.959 114.996 157.046 115.428 154.905 115.428Z" fill="#FEFEE4"/>
<path d="M187.694 115.428C184.323 115.428 181.34 114.677 178.743 113.175C176.147 111.627 174.12 109.532 172.662 106.892C171.25 104.251 170.544 101.292 170.544 98.0141C170.544 94.9182 171.273 92.0955 172.73 89.546C174.188 86.9509 176.215 84.9022 178.812 83.3998C181.454 81.8519 184.46 81.0779 187.831 81.0779C191.202 81.0779 194.208 81.8291 196.85 83.3315C199.492 84.8339 201.542 86.9054 203 89.546C204.457 92.141 205.186 95.0548 205.186 98.2872C205.186 101.474 204.457 104.388 203 107.028C201.542 109.624 199.469 111.672 196.782 113.175C194.14 114.677 191.111 115.428 187.694 115.428ZM187.831 108.736C189.744 108.736 191.43 108.303 192.887 107.438C194.39 106.573 195.529 105.367 196.304 103.819C197.124 102.225 197.533 100.381 197.533 98.2872C197.533 96.2385 197.124 94.4402 196.304 92.8922C195.529 91.2988 194.39 90.0695 192.887 89.2045C191.43 88.294 189.744 87.8387 187.831 87.8387C185.963 87.8387 184.278 88.294 182.775 89.2045C181.317 90.0695 180.178 91.276 179.358 92.8239C178.584 94.3719 178.197 96.1474 178.197 98.1506C178.197 100.29 178.584 102.157 179.358 103.75C180.178 105.344 181.294 106.573 182.706 107.438C184.164 108.303 185.872 108.736 187.831 108.736Z" fill="#FEFEE4"/>
<path d="M212.368 132.091V81.9657H219.884V85.5851H219.952C221.592 83.9917 223.254 82.8307 224.94 82.1023C226.671 81.3738 228.516 81.0096 230.474 81.0096C233.526 81.0096 236.282 81.7836 238.742 83.3315C241.202 84.8339 243.115 86.9054 244.482 89.546C245.894 92.141 246.6 95.0548 246.6 98.2872C246.6 101.474 245.894 104.365 244.482 106.96C243.115 109.51 241.202 111.536 238.742 113.038C236.328 114.54 233.64 115.292 230.679 115.292C228.584 115.292 226.671 114.95 224.94 114.267C223.209 113.584 221.546 112.446 219.952 110.853H219.884V115.428V132.091H212.368ZM229.245 108.599C231.158 108.599 232.843 108.144 234.301 107.233C235.804 106.323 236.943 105.094 237.717 103.546C238.537 101.952 238.947 100.199 238.947 98.2872C238.947 96.2385 238.56 94.4174 237.786 92.8239C237.011 91.2305 235.895 89.9785 234.437 89.068C233.025 88.1574 231.317 87.7021 229.313 87.7021C227.354 87.7021 225.623 88.1574 224.12 89.068C222.617 89.9785 221.455 91.2305 220.635 92.8239C219.815 94.4174 219.405 96.193 219.405 98.1506C219.405 100.108 219.815 101.884 220.635 103.477C221.455 105.071 222.617 106.323 224.12 107.233C225.623 108.144 227.331 108.599 229.245 108.599Z" fill="#FEFEE4"/>
<path d="M253.805 114.472V58.4736H261.321V79.9853V85.4485H261.457C263.917 82.5348 267.197 81.0779 271.297 81.0779C274.986 81.0779 277.765 82.2389 279.633 84.5608C281.546 86.8826 282.502 90.2061 282.502 94.5312V114.472H274.986V96.3068C274.986 93.2565 274.485 91.0939 273.483 89.8191C272.526 88.4989 270.978 87.8387 268.837 87.8387C266.377 87.8387 264.509 88.6582 263.234 90.2972C261.958 91.8906 261.321 94.5995 261.321 98.4238V114.472H253.805Z" fill="#FEFEE4"/>
<path d="M304.235 100.404L313.527 81.9657H322L296.104 132.159H287.563L300.272 108.053L285.581 81.9657H294.327L304.235 100.404Z" fill="#FEFEE4"/>
<path d="M128.934 55.9985H121.213V11.8143H109.324V4.5072H140.755V11.8143H128.934V55.9985Z" fill="#FEFEE4"/>
<path d="M146.25 55.9985V0H153.766V21.5116V26.9749H153.903C156.363 24.0612 159.642 22.6043 163.742 22.6043C167.432 22.6043 170.21 23.7652 172.078 26.0871C173.991 28.409 174.948 31.7325 174.948 36.0576V55.9985H167.432V37.8332C167.432 34.7828 166.931 32.6203 165.928 31.3455C164.972 30.0252 163.423 29.3651 161.282 29.3651C158.822 29.3651 156.955 30.1846 155.679 31.8236C154.404 33.417 153.766 36.1259 153.766 39.9502V55.9985H146.25Z" fill="#FEFEE4"/>
<path d="M212.653 41.5209H189.353C189.581 44.207 190.424 46.3467 191.881 47.9402C193.384 49.4881 195.366 50.2621 197.826 50.2621C199.648 50.2621 201.197 49.8523 202.472 49.0329C203.793 48.1678 205.023 46.802 206.162 44.9354L212.311 48.6914C210.671 51.4686 208.644 53.5401 206.23 54.9059C203.816 56.2717 200.923 56.9546 197.552 56.9546C194.364 56.9546 191.54 56.2489 189.08 54.8376C186.666 53.3807 184.798 51.3547 183.477 48.7597C182.156 46.1646 181.495 43.1826 181.495 39.8136C181.495 36.4446 182.156 33.4625 183.477 30.8675C184.798 28.2269 186.643 26.2009 189.012 24.7896C191.426 23.3327 194.204 22.6043 197.348 22.6043C200.536 22.6043 203.269 23.31 205.547 24.7213C207.87 26.0871 209.624 28.0676 210.808 30.6626C212.038 33.2577 212.653 36.2852 212.653 39.7453V41.5209ZM204.932 35.3747C204.613 33.417 203.77 31.9146 202.404 30.8675C201.083 29.8204 199.42 29.2968 197.416 29.2968C195.457 29.2968 193.817 29.8431 192.496 30.9358C191.221 32.0284 190.333 33.5081 189.831 35.3747H204.932Z" fill="#FEFEE4"/>
<path d="M85.4784 185C82.1076 185 79.1239 184.249 76.5275 182.746C73.931 181.198 71.9039 179.104 70.4463 176.463C69.0342 173.823 68.3281 170.864 68.3281 167.586C68.3281 164.49 69.057 161.667 70.5146 159.118C71.9723 156.523 73.9993 154.474 76.5958 152.971C79.2378 151.423 82.2442 150.649 85.6151 150.649C88.9859 150.649 91.9923 151.401 94.6343 152.903C97.2763 154.405 99.3262 156.477 100.784 159.118C102.241 161.713 102.97 164.626 102.97 167.859C102.97 171.046 102.241 173.959 100.784 176.6C99.3262 179.195 97.2536 181.244 94.566 182.746C91.924 184.249 88.8948 185 85.4784 185ZM85.6151 178.307C87.5282 178.307 89.2137 177.875 90.6713 177.01C92.1745 176.145 93.3133 174.938 94.0877 173.39C94.9076 171.797 95.3176 169.953 95.3176 167.859C95.3176 165.81 94.9076 164.012 94.0877 162.464C93.3133 160.87 92.1745 159.641 90.6713 158.776C89.2137 157.866 87.5282 157.41 85.6151 157.41C83.7474 157.41 82.062 157.866 80.5588 158.776C79.1011 159.641 77.9623 160.848 77.1424 162.396C76.368 163.943 75.9808 165.719 75.9808 167.722C75.9808 169.862 76.368 171.729 77.1424 173.322C77.9623 174.916 79.0784 176.145 80.4905 177.01C81.9481 177.875 83.6563 178.307 85.6151 178.307Z" fill="#FEFEE4"/>
<path d="M111.997 184.044V158.571H106.12V151.537H111.997V141.157C111.997 137.97 112.498 135.352 113.5 133.304C114.547 131.209 115.937 129.707 117.668 128.796C119.399 127.84 121.357 127.362 123.544 127.362C125.548 127.362 127.234 127.59 128.6 128.045V135.216C127.507 134.669 126.3 134.396 124.979 134.396C123.293 134.396 121.95 135.034 120.947 136.308C119.991 137.538 119.513 139.518 119.513 142.25V151.537H127.78V158.571H119.513V184.044H111.997Z" fill="#FEFEE4"/>
<path d="M164.881 185C161.966 185 159.324 184.476 156.955 183.429C154.632 182.382 152.65 180.925 151.011 179.058C149.371 177.146 148.164 174.938 147.389 172.434L154.564 169.429C155.566 172.161 156.932 174.233 158.663 175.644C160.394 177.01 162.467 177.693 164.881 177.693C166.43 177.693 167.774 177.374 168.912 176.737C170.097 176.099 170.985 175.211 171.577 174.073C172.215 172.935 172.534 171.638 172.534 170.181C172.534 168.633 172.261 167.312 171.714 166.22C171.167 165.082 170.188 163.989 168.776 162.942C167.364 161.895 165.314 160.757 162.626 159.527C159.529 158.116 157.069 156.75 155.247 155.43C153.425 154.064 152.058 152.539 151.147 150.854C150.236 149.17 149.781 147.167 149.781 144.845C149.781 142.386 150.418 140.155 151.694 138.152C152.969 136.104 154.723 134.487 156.955 133.304C159.233 132.12 161.761 131.528 164.54 131.528C167.91 131.528 170.848 132.348 173.354 133.987C175.905 135.58 177.909 137.788 179.367 140.611L172.807 144.367C171.714 142.5 170.507 141.134 169.186 140.269C167.91 139.359 166.362 138.903 164.54 138.903C163.173 138.903 161.966 139.177 160.918 139.723C159.87 140.269 159.051 140.998 158.458 141.908C157.866 142.773 157.57 143.752 157.57 144.845C157.57 145.937 157.843 146.916 158.39 147.781C158.937 148.601 159.916 149.466 161.328 150.376C162.786 151.287 164.836 152.334 167.478 153.518C170.712 154.975 173.263 156.5 175.13 158.093C176.998 159.641 178.342 161.394 179.162 163.352C179.982 165.309 180.392 167.631 180.392 170.317C180.392 173.231 179.708 175.803 178.342 178.034C176.975 180.265 175.108 181.995 172.739 183.224C170.416 184.408 167.796 185 164.881 185Z" fill="#FEFEE4"/>
<path d="M217.057 169.566H193.758C193.985 172.252 194.828 174.392 196.286 175.985C197.789 177.533 199.77 178.307 202.23 178.307C204.052 178.307 205.601 177.898 206.877 177.078C208.198 176.213 209.427 174.847 210.566 172.981L216.716 176.737C215.076 179.514 213.049 181.585 210.635 182.951C208.22 184.317 205.328 185 201.957 185C198.768 185 195.944 184.294 193.484 182.883C191.07 181.426 189.202 179.4 187.881 176.805C186.56 174.21 185.9 171.228 185.9 167.859C185.9 164.49 186.56 161.508 187.881 158.913C189.202 156.272 191.047 154.246 193.416 152.835C195.83 151.378 198.609 150.649 201.752 150.649C204.941 150.649 207.674 151.355 209.951 152.767C212.274 154.132 214.028 156.113 215.213 158.708C216.442 161.303 217.057 164.33 217.057 167.791V169.566ZM209.336 163.42C209.018 161.462 208.175 159.96 206.808 158.913C205.487 157.866 203.825 157.342 201.82 157.342C199.862 157.342 198.222 157.888 196.901 158.981C195.625 160.074 194.737 161.553 194.236 163.42H209.336Z" fill="#FEFEE4"/>
<path d="M241.026 166.903L253.94 184.044H244.989L236.448 172.298L227.77 184.044H218.546L232.075 166.766L220.664 151.537H229.547L236.653 161.166L243.554 151.537H252.71L241.094 166.834L241.026 166.903Z" fill="#FEFEE4"/>
</svg>
