<svg width="276" height="215" viewBox="0 0 276 215" fill="none" xmlns="http://www.w3.org/2000/svg">
<path d="M27.0887 188.347C42.3207 188.347 49.4887 178.882 49.4887 162.94V115.114C49.4887 102.161 46.5767 95.685 38.2887 86.9668L26.6407 74.014C23.9527 70.7758 23.2807 69.2812 23.2807 64.5485V22.452C23.2807 20.4592 23.9527 19.4628 25.5207 19.4628C27.0887 19.4628 27.7607 20.4592 27.7607 22.452V71.274H48.5927V21.4556C48.5927 9.49916 43.8887 0.53186 27.9847 0.53186H23.0567C7.15274 0.53186 1.32874 9.49916 1.32874 23.4483V65.5448C1.32874 77.2522 4.01674 84.974 11.1847 92.6959L23.0567 105.649C26.4167 109.385 26.8647 111.129 26.8647 116.111V164.185C26.8647 166.925 25.9687 168.171 24.4007 168.171C22.8327 168.171 22.1607 166.925 22.1607 164.185V108.14H0.656738V165.929C0.656738 180.874 7.82474 188.347 22.1607 188.347H27.0887Z" fill="black"/>
<path d="M70.2017 215H93.9457L86.5537 187.351C97.0817 184.113 102.234 175.394 102.234 160.698V28.6792C102.234 11.4919 95.2897 0.53186 79.1617 0.53186H76.0257C59.8977 0.53186 52.7297 10.9937 52.7297 28.6792V160.698C52.7297 175.643 58.7777 185.109 70.2017 187.849V215ZM80.0577 162.691C80.0577 165.431 79.1617 166.676 77.5937 166.676C76.0257 166.676 75.1297 165.431 75.1297 162.691V26.1883C75.1297 23.4483 76.0257 21.9538 77.5937 21.9538C79.1617 21.9538 80.0577 23.4483 80.0577 26.1883V162.691Z" fill="black"/>
<path d="M132.094 188.347C147.998 188.347 154.942 177.636 154.942 164.933V1.77732H132.766V162.193C132.766 164.683 131.87 165.929 130.302 165.929C128.734 165.929 128.062 164.683 128.062 162.193V1.77732H105.886V164.933C105.886 177.636 111.934 188.347 128.734 188.347H132.094Z" fill="black"/>
<path d="M180.557 1.77732H158.605V187.102H180.557V1.77732Z" fill="black"/>
<path d="M206.15 20.4592H207.942C209.958 20.4592 210.182 21.4556 210.182 23.6974V77.7504C210.182 79.9922 209.286 80.9885 207.718 80.9885H206.15V20.4592ZM206.15 101.912H207.718C210.182 101.912 210.182 103.407 210.182 105.15V181.124C210.182 183.864 210.631 185.856 211.751 187.102H233.031V186.604C232.359 184.86 232.134 183.116 232.134 180.376V101.414C232.134 93.6922 227.654 89.7068 224.07 87.9631C227.43 86.2195 231.686 82.234 231.686 72.5194V18.9647C231.686 7.25733 226.086 1.77732 218.246 1.77732H184.199V187.102H206.15V101.912Z" fill="black"/>
<path d="M243.914 187.102H265.418V23.9465H275.274V1.77732H234.282V23.9465H243.914V187.102Z" fill="black"/>
</svg>
