<svg width="261" height="197" viewBox="0 0 261 197" fill="none" xmlns="http://www.w3.org/2000/svg">
<path d="M20.3969 196.152H64.8728L82.5053 0.352407H50.1352L43.2928 133.78L36.7135 0.352407H0.922192L20.3969 196.152ZM118.196 0.352407H84.7731V196.152H118.196V0.352407ZM123.581 196.152H173.846C190.426 196.152 198.848 186.151 198.848 166.413V112.727C198.848 96.9363 188.584 91.1465 183.32 89.8306C187.531 88.5148 196.216 82.4619 196.216 69.3033V25.0905C196.216 7.19485 187.531 0.352407 174.109 0.352407H123.581V196.152ZM159.372 25.0905C162.793 25.0905 163.319 26.4064 163.319 29.8276V75.8826C163.319 79.3038 162.004 80.8828 159.372 80.8828H157.003V25.0905H159.372ZM160.161 105.095C163.319 105.095 164.109 106.41 164.109 110.358V165.624C164.109 169.045 163.583 170.624 160.161 170.624H157.003V105.095H160.161ZM203.509 0.352407V196.152H260.617V165.624H236.142V109.042H256.143V77.9879H236.142V30.3539H259.827V0.352407H203.509Z" fill="black"/>
</svg>
